<?xml version="1.0" standalone="no"?>
<!DOCTYPE svg PUBLIC "-//W3C//DTD SVG 20010904//EN"
 "http://www.w3.org/TR/2001/REC-SVG-20010904/DTD/svg10.dtd">
<svg version="1.0" xmlns="http://www.w3.org/2000/svg"
 width="64.000000pt" height="64.000000pt" viewBox="0 0 64.000000 64.000000"
 preserveAspectRatio="xMidYMid meet">

<g transform="translate(0.000000,64.000000) scale(0.100000,-0.100000)"
fill="#000000" stroke="none">
<path d="M252 467 c-34 -34 -62 -66 -62 -70 0 -4 14 -7 30 -7 l30 0 0 -69 c0
-99 2 -101 71 -101 l59 0 0 85 0 85 35 0 c19 0 35 4 35 8 0 8 -122 132 -131
132 -2 0 -33 -28 -67 -63z"/>
<path d="M260 190 c0 -6 27 -10 60 -10 33 0 60 4 60 10 0 6 -27 10 -60 10 -33
0 -60 -4 -60 -10z"/>
<path d="M260 150 c0 -6 27 -10 60 -10 33 0 60 4 60 10 0 6 -27 10 -60 10 -33
0 -60 -4 -60 -10z"/>
<path d="M265 110 c3 -5 28 -10 55 -10 27 0 52 5 55 10 4 6 -17 10 -55 10 -38
0 -59 -4 -55 -10z"/>
</g>
</svg>
